<svg width="242" height="96" viewBox="0 0 242 96" fill="none" xmlns="http://www.w3.org/2000/svg">
<path d="M109.952 45.8C109.781 46.1413 109.525 46.44 109.184 46.696C108.885 46.952 108.651 47.1227 108.48 47.208C108.352 47.2507 108.395 47.1227 108.608 46.824C109.376 45.8853 109.867 45.0107 110.08 44.2C110.336 43.3893 110.336 42.7493 110.08 42.28C109.867 41.768 109.44 41.512 108.8 41.512C107.947 41.512 106.944 41.8533 105.792 42.536C104.64 43.2187 103.445 44.1147 102.208 45.224C101.013 46.3333 99.8827 47.528 98.816 48.808C97.792 50.0453 96.96 51.2613 96.32 52.456C95.68 53.608 95.36 54.6107 95.36 55.464C95.36 56.104 95.488 56.5093 95.744 56.68C96 56.8507 96.256 56.936 96.512 56.936C97.4933 56.936 98.624 56.488 99.904 55.592C101.227 54.6533 102.571 53.48 103.936 52.072C105.301 50.664 106.603 49.2347 107.84 47.784C109.077 46.2907 110.144 44.9467 111.04 43.752C111.979 42.5573 112.619 41.7467 112.96 41.32C113.429 41.4907 113.984 41.5547 114.624 41.512C115.307 41.4693 115.883 41.4267 116.352 41.384C116.267 41.512 115.819 42.0453 115.008 42.984C114.24 43.9227 113.301 45.0533 112.192 46.376C111.125 47.656 110.037 48.9787 108.928 50.344C107.861 51.7093 106.965 52.904 106.24 53.928C105.515 54.952 105.152 55.6347 105.152 55.976C105.152 56.4027 105.237 56.68 105.408 56.808C105.621 56.8933 105.941 56.936 106.368 56.936C106.88 56.8933 107.627 56.6587 108.608 56.232C109.589 55.7627 110.848 54.8667 112.384 53.544C113.92 52.2213 115.776 50.2587 117.952 47.656C117.952 47.656 118.037 47.72 118.208 47.848C118.421 47.976 118.528 48.04 118.528 48.04C115.968 51.0267 113.6 53.3733 111.424 55.08C109.248 56.744 107.264 57.576 105.472 57.576C104.533 57.576 103.893 57.4267 103.552 57.128C103.253 56.8293 103.104 56.4027 103.104 55.848C103.104 55.4213 103.275 54.9093 103.616 54.312C104 53.672 104.427 53.0533 104.896 52.456C105.365 51.8587 105.749 51.3893 106.048 51.048C106.048 51.048 106.005 51.0267 105.92 50.984C105.835 50.9413 105.792 50.92 105.792 50.92C104.811 52.1147 103.765 53.224 102.656 54.248C101.547 55.272 100.437 56.0827 99.328 56.68C98.2613 57.2773 97.216 57.576 96.192 57.576C95.1253 57.576 94.3787 57.32 93.952 56.808C93.5253 56.2533 93.312 55.4213 93.312 54.312C93.312 53.2453 93.6533 51.9653 94.336 50.472C95.0187 48.936 96 47.4427 97.28 45.992C98.56 44.4987 100.096 43.2613 101.888 42.28C103.723 41.2987 105.771 40.808 108.032 40.808C109.141 40.808 109.909 41.0213 110.336 41.448C110.763 41.832 110.955 42.3013 110.912 42.856C110.869 43.4107 110.741 43.9653 110.528 44.52C110.315 45.0747 110.123 45.5013 109.952 45.8ZM115.889 58.472C114.396 58.472 113.265 58.1947 112.497 57.64C111.729 57.0853 111.345 56.3387 111.345 55.4C111.345 54.7173 111.58 54.12 112.049 53.608C112.476 53.0533 112.988 52.6267 113.585 52.328C114.183 51.9867 114.652 51.816 114.993 51.816C115.463 51.816 115.783 51.9227 115.953 52.136C116.081 52.3067 116.145 52.4987 116.145 52.712C116.145 53.0533 115.953 53.3307 115.569 53.544C115.143 53.7573 114.801 53.864 114.545 53.864C114.247 53.864 113.991 53.7787 113.777 53.608C113.521 53.3947 113.393 53.288 113.393 53.288C113.18 53.3307 112.881 53.5653 112.497 53.992C112.113 54.4187 111.921 54.888 111.921 55.4C111.921 55.912 112.199 56.4027 112.753 56.872C113.308 57.3413 114.204 57.576 115.441 57.576C116.721 57.576 117.938 57.1493 119.09 56.296C120.284 55.4427 121.266 54.3547 122.034 53.032C122.802 51.7093 123.186 50.3653 123.186 49C123.186 48.5307 123.186 47.912 123.186 47.144C123.186 46.3333 123.186 45.672 123.186 45.16C123.186 44.52 123.292 43.7947 123.506 42.984C123.719 42.1307 123.954 41.3413 124.21 40.616C124.508 39.8907 124.743 39.4427 124.914 39.272C125.255 38.9733 125.511 38.888 125.682 39.016C125.852 39.144 125.895 39.272 125.81 39.4C125.767 39.4427 125.49 39.784 124.978 40.424C124.466 41.0213 123.826 41.768 123.058 42.664C122.29 43.56 121.522 44.456 120.754 45.352C119.986 46.248 119.303 47.0373 118.706 47.72C118.151 48.4027 117.831 48.808 117.745 48.936C117.532 49.2347 117.34 49.2987 117.169 49.128C116.999 48.9573 117.041 48.744 117.297 48.488C117.767 47.8907 118.343 47.1867 119.026 46.376C119.751 45.5227 120.476 44.6907 121.202 43.88C121.927 43.0693 122.546 42.3867 123.058 41.832C123.612 41.2347 123.911 40.8933 123.954 40.808C124.082 40.6373 124.188 40.3387 124.274 39.912C124.402 39.4853 124.551 39.08 124.722 38.696C124.935 38.312 125.191 38.12 125.49 38.12C126.215 38.12 126.578 38.376 126.578 38.888C126.578 39.272 126.279 39.7413 125.682 40.296C125.127 40.8507 124.807 41.2987 124.722 41.64C124.594 42.152 124.594 42.8773 124.722 43.816C124.892 44.712 125.063 45.736 125.234 46.888C125.447 48.04 125.554 49.256 125.554 50.536C125.554 52.2427 125.212 53.6293 124.53 54.696C123.847 55.72 122.994 56.5093 121.97 57.064C120.946 57.6187 119.879 57.9813 118.77 58.152C117.703 58.3653 116.743 58.472 115.889 58.472ZM125.746 54.056C124.636 54.056 123.911 53.8427 123.57 53.416C123.271 52.9893 123.164 52.4987 123.25 51.944C123.378 51.3467 123.527 50.8133 123.698 50.344L124.338 50.408C124.21 50.8347 124.082 51.2827 123.954 51.752C123.868 52.2213 123.932 52.6267 124.146 52.968C124.359 53.3093 124.914 53.48 125.81 53.48C126.45 53.48 127.175 53.1813 127.986 52.584C128.796 51.9867 129.586 51.2613 130.354 50.408C131.164 49.5547 131.847 48.7227 132.402 47.912L132.978 48.36C132.423 49.0427 131.74 49.832 130.93 50.728C130.162 51.624 129.33 52.4133 128.434 53.096C127.538 53.736 126.642 54.056 125.746 54.056ZM146.327 45.8C146.156 46.1413 145.9 46.44 145.559 46.696C145.26 46.952 145.026 47.1227 144.855 47.208C144.727 47.2507 144.77 47.1227 144.983 46.824C145.751 45.8853 146.242 45.0107 146.455 44.2C146.711 43.3893 146.711 42.7493 146.455 42.28C146.242 41.768 145.815 41.512 145.175 41.512C144.322 41.512 143.319 41.8533 142.167 42.536C141.015 43.2187 139.82 44.1147 138.583 45.224C137.388 46.3333 136.258 47.528 135.191 48.808C134.167 50.0453 133.335 51.2613 132.695 52.456C132.055 53.608 131.735 54.6107 131.735 55.464C131.735 56.104 131.863 56.5093 132.119 56.68C132.375 56.8507 132.631 56.936 132.887 56.936C133.868 56.936 134.999 56.488 136.279 55.592C137.602 54.6533 138.946 53.48 140.311 52.072C141.676 50.664 142.978 49.2347 144.215 47.784C145.452 46.2907 146.519 44.9467 147.415 43.752C148.354 42.5573 148.994 41.7467 149.335 41.32C149.804 41.4907 150.359 41.5547 150.999 41.512C151.682 41.4693 152.258 41.4267 152.727 41.384C152.642 41.512 152.194 42.0453 151.383 42.984C150.615 43.9227 149.676 45.0533 148.567 46.376C147.5 47.656 146.412 48.9787 145.303 50.344C144.236 51.7093 143.34 52.904 142.615 53.928C141.89 54.952 141.527 55.6347 141.527 55.976C141.527 56.4027 141.612 56.68 141.783 56.808C141.996 56.8933 142.316 56.936 142.743 56.936C143.255 56.8933 144.002 56.6587 144.983 56.232C145.964 55.7627 147.223 54.8667 148.759 53.544C150.295 52.2213 152.151 50.2587 154.327 47.656C154.327 47.656 154.412 47.72 154.583 47.848C154.796 47.976 154.903 48.04 154.903 48.04C152.343 51.0267 149.975 53.3733 147.799 55.08C145.623 56.744 143.639 57.576 141.847 57.576C140.908 57.576 140.268 57.4267 139.927 57.128C139.628 56.8293 139.479 56.4027 139.479 55.848C139.479 55.4213 139.65 54.9093 139.991 54.312C140.375 53.672 140.802 53.0533 141.271 52.456C141.74 51.8587 142.124 51.3893 142.423 51.048C142.423 51.048 142.38 51.0267 142.295 50.984C142.21 50.9413 142.167 50.92 142.167 50.92C141.186 52.1147 140.14 53.224 139.031 54.248C137.922 55.272 136.812 56.0827 135.703 56.68C134.636 57.2773 133.591 57.576 132.567 57.576C131.5 57.576 130.754 57.32 130.327 56.808C129.9 56.2533 129.687 55.4213 129.687 54.312C129.687 53.2453 130.028 51.9653 130.711 50.472C131.394 48.936 132.375 47.4427 133.655 45.992C134.935 44.4987 136.471 43.2613 138.263 42.28C140.098 41.2987 142.146 40.808 144.407 40.808C145.516 40.808 146.284 41.0213 146.711 41.448C147.138 41.832 147.33 42.3013 147.287 42.856C147.244 43.4107 147.116 43.9653 146.903 44.52C146.69 45.0747 146.498 45.5013 146.327 45.8ZM167.817 57.576C165.555 57.576 164.425 56.9147 164.425 55.592C164.425 54.7387 164.702 53.8213 165.257 52.84C165.854 51.8587 166.579 50.8773 167.433 49.896C168.286 48.872 169.139 47.8693 169.993 46.888C170.889 45.9067 171.614 45.0107 172.169 44.2C172.766 43.3467 173.065 42.6213 173.065 42.024C173.065 41.8107 172.958 41.64 172.745 41.512C172.574 41.3413 172.318 41.256 171.977 41.256C171.465 41.256 170.739 41.512 169.801 42.024C168.905 42.536 167.753 43.4107 166.345 44.648C164.979 45.8427 163.358 47.464 161.481 49.512C159.603 51.5173 157.449 54.0347 155.017 57.064C154.633 56.9787 154.056 56.936 153.288 56.936C152.52 56.936 151.859 57.0213 151.304 57.192C152.542 55.4 153.758 53.6507 154.953 51.944C156.147 50.2373 157.235 48.68 158.217 47.272C159.241 45.864 160.051 44.712 160.649 43.816C161.246 42.8773 161.545 42.3013 161.545 42.088C161.545 41.704 161.353 41.512 160.969 41.512C160.542 41.512 160.009 41.8533 159.369 42.536C158.729 43.176 158.025 44.008 157.257 45.032C156.489 46.0133 155.699 47.016 154.889 48.04L154.312 47.656C155.166 46.6747 155.998 45.6507 156.809 44.584C157.619 43.5173 158.451 42.6 159.305 41.832C160.158 41.064 161.054 40.68 161.993 40.68C162.462 40.68 162.889 40.808 163.273 41.064C163.699 41.2773 163.913 41.64 163.913 42.152C163.913 42.6213 163.721 43.1973 163.337 43.88C162.995 44.52 162.526 45.2667 161.929 46.12C161.331 46.9307 160.649 47.848 159.881 48.872C159.155 49.8533 158.387 50.92 157.577 52.072L157.641 52.456C159.902 49.9813 161.801 47.976 163.337 46.44C164.915 44.904 166.217 43.7307 167.241 42.92C168.307 42.0667 169.225 41.4907 169.993 41.192C170.803 40.8507 171.571 40.68 172.297 40.68C173.278 40.68 173.982 40.8933 174.409 41.32C174.835 41.704 175.049 42.2373 175.049 42.92C175.049 43.944 174.75 45.032 174.153 46.184C173.555 47.2933 172.809 48.4027 171.913 49.512C171.059 50.5787 170.185 51.5813 169.289 52.52C168.435 53.416 167.71 54.184 167.113 54.824C166.515 55.464 166.217 55.8907 166.217 56.104C166.217 56.36 166.281 56.552 166.409 56.68C166.579 56.808 166.985 56.872 167.625 56.872C169.203 56.872 170.697 56.3813 172.105 55.4C173.555 54.4187 174.942 53.224 176.265 51.816C177.587 50.3653 178.825 48.936 179.977 47.528L180.489 47.976C179.337 49.3413 178.078 50.7707 176.713 52.264C175.347 53.7573 173.918 55.016 172.425 56.04C170.931 57.064 169.395 57.576 167.817 57.576ZM190.947 40.68C193.08 40.68 194.147 41.704 194.147 43.752C194.147 45.3307 193.784 46.952 193.059 48.616C192.334 50.2373 191.352 51.7307 190.115 53.096C188.878 54.4187 187.534 55.5067 186.083 56.36C184.632 57.1707 183.16 57.576 181.667 57.576C180.515 57.576 179.555 57.2987 178.787 56.744C177.976 56.1467 177.571 55.1867 177.571 53.864C177.571 52.6267 177.934 51.2613 178.659 49.768C179.384 48.232 180.366 46.7813 181.603 45.416C182.883 44.0507 184.312 42.92 185.891 42.024C187.512 41.128 189.198 40.68 190.947 40.68ZM191.651 41.576C190.926 41.576 190.072 41.896 189.091 42.536C188.11 43.176 187.107 44.008 186.083 45.032C185.059 46.056 184.099 47.1653 183.203 48.36C182.35 49.512 181.646 50.6427 181.091 51.752C180.579 52.8613 180.323 53.8 180.323 54.568C180.323 55.4213 180.558 56.0187 181.027 56.36C181.496 56.6587 182.03 56.808 182.627 56.808C183.608 56.808 184.718 56.4027 185.955 55.592C187.192 54.7387 188.387 53.672 189.539 52.392C190.691 51.112 191.63 49.768 192.355 48.36C193.123 46.9093 193.507 45.5867 193.507 44.392C193.507 43.2827 193.315 42.536 192.931 42.152C192.547 41.768 192.12 41.576 191.651 41.576ZM192.803 48.168C193.016 48.168 193.102 48.2533 193.059 48.424C193.059 48.552 192.952 48.616 192.739 48.616C192.568 48.616 192.312 48.8507 191.971 49.32C191.672 49.7467 191.395 50.1947 191.139 50.664C190.883 51.1333 190.755 51.3893 190.755 51.432C190.755 52.4133 191.118 52.904 191.843 52.904C192.526 52.904 193.294 52.584 194.147 51.944C195.043 51.304 195.896 50.5787 196.707 49.768C197.56 48.9147 198.243 48.168 198.755 47.528L199.267 47.976C198.712 48.616 198.008 49.384 197.155 50.28C196.302 51.1333 195.406 51.9013 194.467 52.584C193.528 53.224 192.654 53.544 191.843 53.544C191.16 53.544 190.691 53.3947 190.435 53.096C190.179 52.7973 190.051 52.264 190.051 51.496C190.051 50.472 190.392 49.6613 191.075 49.064C191.8 48.4667 192.376 48.168 192.803 48.168ZM205.024 40.808C205.45 40.8507 206.026 40.9147 206.752 41C207.52 41.0427 208.245 41 208.928 40.872C208.245 41.5973 207.37 42.5147 206.304 43.624C205.237 44.6907 204.085 45.8213 202.848 47.016C201.653 48.2107 200.522 49.384 199.456 50.536C198.431 51.688 197.578 52.712 196.895 53.608C196.213 54.504 195.871 55.1867 195.871 55.656C195.871 56.0827 195.999 56.4027 196.255 56.616C196.511 56.8293 196.959 56.936 197.599 56.936C198.282 56.936 199.221 56.68 200.416 56.168C201.653 55.656 202.976 54.9733 204.384 54.12C205.792 53.2667 207.157 52.3067 208.48 51.24C209.802 50.1307 210.912 49 211.808 47.848C212.746 46.6533 213.301 45.48 213.472 44.328C213.6 43.56 213.664 42.7707 213.664 41.96C213.664 41.4907 213.856 41.064 214.24 40.68C214.666 40.2533 215.093 40.04 215.52 40.04C216.458 40.04 216.928 40.5947 216.928 41.704C216.928 42.6853 216.437 43.8587 215.456 45.224C214.517 46.5893 213.258 47.9973 211.68 49.448C210.144 50.856 208.458 52.1787 206.624 53.416C204.832 54.6533 203.061 55.656 201.312 56.424C199.605 57.192 198.111 57.576 196.831 57.576C196.063 57.576 195.445 57.384 194.975 57C194.463 56.616 194.207 56.0613 194.207 55.336C194.207 54.5253 194.549 53.544 195.231 52.392C195.914 51.24 196.789 50.024 197.855 48.744C198.88 47.464 199.904 46.248 200.928 45.096C201.994 43.944 202.912 42.984 203.68 42.216C204.448 41.448 204.896 40.9787 205.024 40.808ZM211.296 48.936L211.808 49.32C211.381 49.704 211.018 50.1093 210.72 50.536C210.464 50.92 210.336 51.3467 210.336 51.816C210.336 52.4987 210.741 52.84 211.552 52.84C212.32 52.84 213.13 52.52 213.984 51.88C214.88 51.24 215.754 50.4933 216.608 49.64C217.461 48.7867 218.186 48.0827 218.784 47.528L219.296 47.912C218.698 48.552 217.952 49.32 217.056 50.216C216.202 51.0693 215.285 51.816 214.304 52.456C213.322 53.096 212.405 53.416 211.552 53.416C210.314 53.416 209.696 52.904 209.696 51.88C209.696 51.2827 209.802 50.8133 210.016 50.472C210.229 50.088 210.656 49.576 211.296 48.936ZM232.702 45.8C232.531 46.1413 232.275 46.44 231.934 46.696C231.635 46.952 231.401 47.1227 231.23 47.208C231.102 47.2507 231.145 47.1227 231.358 46.824C232.126 45.8853 232.617 45.0107 232.83 44.2C233.086 43.3893 233.086 42.7493 232.83 42.28C232.617 41.768 232.19 41.512 231.55 41.512C230.697 41.512 229.694 41.8533 228.542 42.536C227.39 43.2187 226.195 44.1147 224.958 45.224C223.763 46.3333 222.633 47.528 221.566 48.808C220.542 50.0453 219.71 51.2613 219.07 52.456C218.43 53.608 218.11 54.6107 218.11 55.464C218.11 56.104 218.238 56.5093 218.494 56.68C218.75 56.8507 219.006 56.936 219.262 56.936C220.243 56.936 221.374 56.488 222.654 55.592C223.977 54.6533 225.321 53.48 226.686 52.072C228.051 50.664 229.353 49.2347 230.59 47.784C231.827 46.2907 232.894 44.9467 233.79 43.752C234.729 42.5573 235.369 41.7467 235.71 41.32C236.179 41.4907 236.734 41.5547 237.374 41.512C238.057 41.4693 238.633 41.4267 239.102 41.384C239.017 41.512 238.569 42.0453 237.758 42.984C236.99 43.9227 236.051 45.0533 234.942 46.376C233.875 47.656 232.787 48.9787 231.678 50.344C230.611 51.7093 229.715 52.904 228.99 53.928C228.265 54.952 227.902 55.6347 227.902 55.976C227.902 56.4027 227.987 56.68 228.158 56.808C228.371 56.8933 228.691 56.936 229.118 56.936C229.63 56.8933 230.377 56.6587 231.358 56.232C232.339 55.7627 233.598 54.8667 235.134 53.544C236.67 52.2213 238.526 50.2587 240.702 47.656C240.702 47.656 240.787 47.72 240.958 47.848C241.171 47.976 241.278 48.04 241.278 48.04C238.718 51.0267 236.35 53.3733 234.174 55.08C231.998 56.744 230.014 57.576 228.222 57.576C227.283 57.576 226.643 57.4267 226.302 57.128C226.003 56.8293 225.854 56.4027 225.854 55.848C225.854 55.4213 226.025 54.9093 226.366 54.312C226.75 53.672 227.177 53.0533 227.646 52.456C228.115 51.8587 228.499 51.3893 228.798 51.048C228.798 51.048 228.755 51.0267 228.67 50.984C228.585 50.9413 228.542 50.92 228.542 50.92C227.561 52.1147 226.515 53.224 225.406 54.248C224.297 55.272 223.187 56.0827 222.078 56.68C221.011 57.2773 219.966 57.576 218.942 57.576C217.875 57.576 217.129 57.32 216.702 56.808C216.275 56.2533 216.062 55.4213 216.062 54.312C216.062 53.2453 216.403 51.9653 217.086 50.472C217.769 48.936 218.75 47.4427 220.03 45.992C221.31 44.4987 222.846 43.2613 224.638 42.28C226.473 41.2987 228.521 40.808 230.782 40.808C231.891 40.808 232.659 41.0213 233.086 41.448C233.513 41.832 233.705 42.3013 233.662 42.856C233.619 43.4107 233.491 43.9653 233.278 44.52C233.065 45.0747 232.873 45.5013 232.702 45.8Z" fill="#EBBF0F"/>
<path d="M7.2854 43.2564L3 23.5897L20.1416 13L34.4263 23.5897L30.1409 43.2564M7.2854 43.2564H30.1409M7.2854 43.2564V65.9487H30.1409V43.2564" stroke="#EBBF0F" stroke-width="4.06897"/>
<path d="M78.16 11.624C78.864 11.688 79.248 11.88 79.312 12.2C79.376 12.456 79.056 12.552 78.352 12.488C74.896 12.168 71.6 12.552 68.464 13.64C65.328 14.664 62.544 16.072 60.112 17.864C57.744 19.656 55.856 21.544 54.448 23.528C53.104 25.512 52.432 27.24 52.432 28.712C52.432 31.592 53.552 33.736 55.792 35.144C58.032 36.552 60.912 37.256 64.432 37.256C67.504 37.256 70.768 36.744 74.224 35.72C77.68 34.632 81.072 33.256 84.4 31.592C87.728 29.864 90.736 28.072 93.424 26.216C96.112 24.296 98.256 22.504 99.856 20.84C101.456 19.176 102.256 17.832 102.256 16.808C102.256 16.04 101.936 15.56 101.296 15.368C100.72 15.112 100.048 14.984 99.28 14.984C97.168 14.984 94.608 15.72 91.6 17.192C88.592 18.664 85.36 20.68 81.904 23.24C78.512 25.736 75.152 28.52 71.824 31.592C68.56 34.664 65.552 37.832 62.8 41.096C60.112 44.296 57.936 47.368 56.272 50.312C54.672 53.256 53.872 55.816 53.872 57.992C53.872 60.424 54.608 62.184 56.08 63.272C57.616 64.36 59.408 64.904 61.456 64.904C63.44 64.904 65.456 64.36 67.504 63.272C69.616 62.184 71.664 60.776 73.648 59.048C75.632 57.32 77.392 55.464 78.928 53.48C80.528 51.496 81.776 49.544 82.672 47.624C83.632 45.704 84.112 44.04 84.112 42.632C84.112 41.416 83.76 40.616 83.056 40.232C82.416 39.848 81.648 39.656 80.752 39.656C78.256 39.656 75.792 40.424 73.36 41.96C70.928 43.432 68.72 45.416 66.736 47.912C64.752 50.344 63.152 53.032 61.936 55.976C60.784 58.856 60.208 61.736 60.208 64.616C60.208 65.704 60.4 66.952 60.784 68.36C61.168 69.768 61.552 70.984 61.936 72.008C62.32 73.096 62.512 73.768 62.512 74.024C62.576 74.472 62.512 74.824 62.32 75.08C62.128 75.336 61.84 75.24 61.456 74.792C61.072 74.408 60.592 73.32 60.016 71.528C59.44 69.736 59.152 67.496 59.152 64.808C59.152 61.608 59.728 58.472 60.88 55.4C62.096 52.328 63.728 49.544 65.776 47.048C67.824 44.488 70.192 42.472 72.88 41C75.568 39.464 78.448 38.696 81.52 38.696C83.12 38.696 84.528 39.144 85.744 40.04C86.96 40.872 87.568 42.12 87.568 43.784C87.568 45.768 86.896 48.008 85.552 50.504C84.272 53 82.416 55.432 79.984 57.8C77.616 60.104 74.8 62.024 71.536 63.56C68.336 65.032 64.848 65.768 61.072 65.768C57.744 65.768 55.28 64.84 53.68 62.984C52.144 61.064 51.376 58.984 51.376 56.744C51.376 53.672 52.08 50.504 53.488 47.24C54.96 43.976 56.944 40.744 59.44 37.544C61.936 34.344 64.784 31.336 67.984 28.52C71.184 25.704 74.576 23.24 78.16 21.128C81.808 18.952 85.456 17.256 89.104 16.04C92.752 14.76 96.24 14.12 99.568 14.12C100.336 14.12 101.136 14.28 101.968 14.6C102.8 14.92 103.216 15.528 103.216 16.424C103.216 18.216 102.384 20.104 100.72 22.088C99.12 24.072 96.912 26.024 94.096 27.944C91.344 29.8 88.272 31.496 84.88 33.032C81.488 34.568 78 35.816 74.416 36.776C70.896 37.672 67.536 38.12 64.336 38.12C60.176 38.12 56.88 37.352 54.448 35.816C52.08 34.216 50.896 31.528 50.896 27.752C50.896 25.768 51.696 23.784 53.296 21.8C54.896 19.752 57.008 17.928 59.632 16.328C62.32 14.728 65.264 13.48 68.464 12.584C71.728 11.688 74.96 11.368 78.16 11.624Z" fill="#EBBF0F"/>
</svg>
